<?xml version="1.0" standalone="no"?>
<!DOCTYPE svg PUBLIC "-//W3C//DTD SVG 20010904//EN"
 "http://www.w3.org/TR/2001/REC-SVG-20010904/DTD/svg10.dtd">
<svg version="1.0" xmlns="http://www.w3.org/2000/svg"
 width="320.000000pt" height="320.000000pt" viewBox="0 0 320.000000 320.000000"
 preserveAspectRatio="xMidYMid meet">
<metadata>
Created by potrace 1.14, written by Peter Selinger 2001-2017
</metadata>
<g transform="translate(0.000000,320.000000) scale(0.100000,-0.100000)"
fill="#000000" stroke="none">
<path d="M2199 3193 c-22 -5 -38 -43 -29 -68 5 -15 -2 -26 -34 -48 -23 -16
-55 -42 -71 -58 l-31 -29 -52 39 c-136 103 -313 121 -472 50 -36 -17 -86 -48
-113 -70 -34 -29 -51 -38 -60 -31 -7 6 -60 35 -119 66 -60 30 -103 58 -98 61
16 10 11 51 -9 69 -23 21 -67 13 -81 -14 -13 -25 3 -66 29 -75 19 -6 19 -7 -5
-68 -14 -34 -34 -92 -45 -129 -19 -66 -21 -68 -53 -68 -168 0 -338 -110 -413
-266 -34 -71 -40 -89 -50 -156 -3 -21 -8 -39 -12 -39 -6 -2 -13 -2 -116 -13
-57 -6 -65 -4 -75 13 -21 40 -81 34 -95 -9 -8 -26 19 -70 44 -70 10 0 30 9 44
20 l26 21 98 -98 c103 -103 142 -160 198 -289 32 -73 33 -80 18 -96 -13 -15
-14 -23 -5 -43 7 -14 20 -25 31 -25 16 0 35 -28 34 -50 -1 -3 8 -21 18 -42 16
-31 17 -38 4 -48 -19 -16 -19 -49 0 -70 12 -14 12 -23 0 -70 -34 -135 -43
-350 -20 -490 19 -114 81 -290 137 -390 122 -215 313 -395 528 -498 63 -30
175 -70 215 -78 21 -4 52 -10 95 -20 14 -3 81 -7 150 -9 334 -10 620 105 856
342 244 245 357 532 350 888 -5 248 -65 436 -205 650 -62 95 -218 250 -318
316 -46 29 -83 61 -83 69 0 23 -20 40 -46 40 -18 0 -27 12 -47 62 -24 61 -24
63 -6 76 39 27 15 87 -33 80 -20 -3 -26 6 -56 94 -18 53 -36 121 -40 150 -8
59 -7 239 1 278 3 14 6 28 6 33 1 4 14 7 31 7 48 0 66 54 30 90 -20 20 -23 21
-51 13z"/>
</g>
</svg>
